<svg width="37" height="36" viewBox="0 0 37 36" fill="none" xmlns="http://www.w3.org/2000/svg">
<g id="codesandbox">
<path id="Vector" d="M32 24V12C31.9995 11.4739 31.8606 10.9572 31.5973 10.5017C31.334 10.0462 30.9556 9.66802 30.5 9.40497L20 3.40498C19.5439 3.14167 19.0266 3.00305 18.5 3.00305C17.9734 3.00305 17.4561 3.14167 17 3.40498L6.5 9.40497C6.04439 9.66802 5.66597 10.0462 5.40269 10.5017C5.13941 10.9572 5.00054 11.4739 5 12V24C5.00054 24.5261 5.13941 25.0428 5.40269 25.4982C5.66597 25.9537 6.04439 26.3319 6.5 26.595L17 32.595C17.4561 32.8583 17.9734 32.9969 18.5 32.9969C19.0266 32.9969 19.5439 32.8583 20 32.595L30.5 26.595C30.9556 26.3319 31.334 25.9537 31.5973 25.4982C31.8606 25.0428 31.9995 24.5261 32 24Z" stroke="#707CF8" stroke-width="3" stroke-linecap="round" stroke-linejoin="round"/>
<path id="Vector_2" d="M11.75 6.315L18.5 10.215L25.25 6.315" stroke="#707CF8" stroke-width="3" stroke-linecap="round" stroke-linejoin="round"/>
<path id="Vector_3" d="M11.75 29.685V21.9L5 18" stroke="#707CF8" stroke-width="3" stroke-linecap="round" stroke-linejoin="round"/>
<path id="Vector_4" d="M32 18L25.25 21.9V29.685" stroke="#707CF8" stroke-width="3" stroke-linecap="round" stroke-linejoin="round"/>
<path id="Vector_5" d="M5.40503 10.44L18.5 18.015L31.595 10.44" stroke="#707CF8" stroke-width="3" stroke-linecap="round" stroke-linejoin="round"/>
<path id="Vector_6" d="M18.5 33.12V18" stroke="#707CF8" stroke-width="3" stroke-linecap="round" stroke-linejoin="round"/>
</g>
</svg>
