<svg width="29" height="28" viewBox="0 0 29 28" fill="none" xmlns="http://www.w3.org/2000/svg">
<g id="settings" clip-path="url(#clip0_1_141)">
<path id="Vector" d="M14.5 17.5C16.433 17.5 18 15.933 18 14C18 12.067 16.433 10.5 14.5 10.5C12.567 10.5 11 12.067 11 14C11 15.933 12.567 17.5 14.5 17.5Z" stroke="#ACACAC" stroke-width="2" stroke-linecap="round" stroke-linejoin="round"/>
<path id="Vector_2" d="M23.1334 17.5C22.9781 17.8519 22.9318 18.2422 23.0004 18.6207C23.069 18.9991 23.2495 19.3484 23.5184 19.6233L23.5884 19.6933C23.8054 19.91 23.9775 20.1674 24.0949 20.4506C24.2123 20.7339 24.2727 21.0375 24.2727 21.3442C24.2727 21.6508 24.2123 21.9544 24.0949 22.2377C23.9775 22.5209 23.8054 22.7783 23.5884 22.995C23.3717 23.2119 23.1144 23.384 22.8311 23.5015C22.5478 23.6189 22.2442 23.6793 21.9376 23.6793C21.6309 23.6793 21.3273 23.6189 21.0441 23.5015C20.7608 23.384 20.5035 23.2119 20.2867 22.995L20.2167 22.925C19.9418 22.656 19.5926 22.4756 19.2141 22.407C18.8356 22.3384 18.4453 22.3847 18.0934 22.54C17.7483 22.6879 17.4541 22.9334 17.2468 23.2464C17.0395 23.5595 16.9282 23.9262 16.9267 24.3017V24.5C16.9267 25.1188 16.6809 25.7123 16.2433 26.1499C15.8057 26.5875 15.2123 26.8333 14.5934 26.8333C13.9746 26.8333 13.3811 26.5875 12.9435 26.1499C12.5059 25.7123 12.2601 25.1188 12.2601 24.5V24.395C12.251 24.0088 12.1261 23.6343 11.9013 23.3201C11.6766 23.006 11.3626 22.7667 11.0001 22.6333C10.6482 22.478 10.2579 22.4317 9.87939 22.5003C9.50093 22.5689 9.15171 22.7494 8.87675 23.0183L8.80675 23.0883C8.59004 23.3053 8.3327 23.4774 8.04944 23.5948C7.76618 23.7122 7.46255 23.7727 7.15591 23.7727C6.84928 23.7727 6.54565 23.7122 6.26239 23.5948C5.97912 23.4774 5.72179 23.3053 5.50508 23.0883C5.28814 22.8716 5.11603 22.6143 4.99861 22.331C4.88119 22.0478 4.82075 21.7441 4.82075 21.4375C4.82075 21.1309 4.88119 20.8272 4.99861 20.544C5.11603 20.2607 5.28814 20.0034 5.50508 19.7867L5.57508 19.7167C5.84404 19.4417 6.02446 19.0925 6.09309 18.714C6.16171 18.3355 6.11538 17.9452 5.96008 17.5933C5.81219 17.2483 5.56663 16.954 5.25362 16.7467C4.94062 16.5394 4.57383 16.4282 4.19841 16.4267H4.00008C3.38124 16.4267 2.78775 16.1808 2.35017 15.7432C1.91258 15.3057 1.66675 14.7122 1.66675 14.0933C1.66675 13.4745 1.91258 12.881 2.35017 12.4434C2.78775 12.0058 3.38124 11.76 4.00008 11.76H4.10508C4.49124 11.751 4.86575 11.626 5.17993 11.4013C5.49411 11.1765 5.73342 10.8625 5.86675 10.5C6.02205 10.1481 6.06838 9.75776 5.99975 9.3793C5.93113 9.00084 5.75071 8.65162 5.48175 8.37666L5.41175 8.30666C5.1948 8.08995 5.0227 7.83261 4.90528 7.54935C4.78785 7.26609 4.72741 6.96246 4.72741 6.65582C4.72741 6.34919 4.78785 6.04556 4.90528 5.7623C5.0227 5.47903 5.1948 5.22169 5.41175 5.00499C5.62845 4.78804 5.88579 4.61594 6.16905 4.49852C6.45232 4.38109 6.75595 4.32065 7.06258 4.32065C7.36922 4.32065 7.67285 4.38109 7.95611 4.49852C8.23937 4.61594 8.49671 4.78804 8.71341 5.00499L8.78341 5.07499C9.05837 5.34395 9.4076 5.52437 9.78606 5.59299C10.1645 5.66162 10.5549 5.61529 10.9067 5.45999H11.0001C11.3451 5.3121 11.6394 5.06654 11.8467 4.75353C12.054 4.44053 12.1653 4.07374 12.1667 3.69832V3.49999C12.1667 2.88115 12.4126 2.28766 12.8502 1.85007C13.2878 1.41249 13.8812 1.16666 14.5001 1.16666C15.1189 1.16666 15.7124 1.41249 16.15 1.85007C16.5876 2.28766 16.8334 2.88115 16.8334 3.49999V3.60499C16.8349 3.98041 16.9462 4.34719 17.1534 4.6602C17.3607 4.9732 17.655 5.21877 18.0001 5.36666C18.352 5.52196 18.7423 5.56828 19.1208 5.49966C19.4992 5.43104 19.8485 5.25062 20.1234 4.98166L20.1934 4.91166C20.4101 4.69471 20.6675 4.52261 20.9507 4.40518C21.234 4.28776 21.5376 4.22732 21.8442 4.22732C22.1509 4.22732 22.4545 4.28776 22.7378 4.40518C23.021 4.52261 23.2784 4.69471 23.4951 4.91166C23.712 5.12836 23.8841 5.3857 24.0016 5.66896C24.119 5.95222 24.1794 6.25585 24.1794 6.56249C24.1794 6.86913 24.119 7.17275 24.0016 7.45602C23.8841 7.73928 23.712 7.99662 23.4951 8.21332L23.4251 8.28332C23.1561 8.55828 22.9757 8.90751 22.9071 9.28597C22.8385 9.66443 22.8848 10.0548 23.0401 10.4067V10.5C23.188 10.8451 23.4335 11.1393 23.7465 11.3466C24.0595 11.5539 24.4263 11.6652 24.8017 11.6667H25.0001C25.6189 11.6667 26.2124 11.9125 26.65 12.3501C27.0876 12.7877 27.3334 13.3812 27.3334 14C27.3334 14.6188 27.0876 15.2123 26.65 15.6499C26.2124 16.0875 25.6189 16.3333 25.0001 16.3333H24.8951C24.5197 16.3348 24.1529 16.4461 23.8399 16.6533C23.5269 16.8606 23.2813 17.1549 23.1334 17.5Z" stroke="#ACACAC" stroke-width="2" stroke-linecap="round" stroke-linejoin="round"/>
</g>
<defs>
<clipPath id="clip0_1_141">
<rect width="28" height="28" fill="white" transform="translate(0.5)"/>
</clipPath>
</defs>
</svg>
