<svg width="29" height="28" viewBox="0 0 29 28" fill="none" xmlns="http://www.w3.org/2000/svg">
<g id="users" clip-path="url(#clip0_1_135)">
<path id="Vector" d="M20.3334 24.5V22.1667C20.3334 20.929 19.8417 19.742 18.9666 18.8668C18.0914 17.9917 16.9044 17.5 15.6667 17.5H6.33341C5.09574 17.5 3.90875 17.9917 3.03358 18.8668C2.15841 19.742 1.66675 20.929 1.66675 22.1667V24.5" stroke="#ACACAC" stroke-width="2" stroke-linecap="round" stroke-linejoin="round"/>
<path id="Vector_2" d="M10.9999 12.8333C13.5772 12.8333 15.6666 10.744 15.6666 8.16667C15.6666 5.58934 13.5772 3.5 10.9999 3.5C8.42259 3.5 6.33325 5.58934 6.33325 8.16667C6.33325 10.744 8.42259 12.8333 10.9999 12.8333Z" stroke="#ACACAC" stroke-width="2" stroke-linecap="round" stroke-linejoin="round"/>
<path id="Vector_3" d="M27.3333 24.5V22.1667C27.3325 21.1327 26.9883 20.1282 26.3548 19.311C25.7214 18.4938 24.8344 17.9102 23.8333 17.6517" stroke="#ACACAC" stroke-width="2" stroke-linecap="round" stroke-linejoin="round"/>
<path id="Vector_4" d="M19.1667 3.65167C20.1706 3.90869 21.0603 4.49249 21.6957 5.31103C22.331 6.12958 22.6759 7.13631 22.6759 8.17251C22.6759 9.2087 22.331 10.2154 21.6957 11.034C21.0603 11.8525 20.1706 12.4363 19.1667 12.6933" stroke="#ACACAC" stroke-width="2" stroke-linecap="round" stroke-linejoin="round"/>
</g>
<defs>
<clipPath id="clip0_1_135">
<rect width="28" height="28" fill="white" transform="translate(0.5)"/>
</clipPath>
</defs>
</svg>
